<svg width="206" height="113" xmlns="http://www.w3.org/2000/svg" xmlns:xlink="http://www.w3.org/1999/xlink" overflow="hidden"><g clip-path="url(#clip1)" transform="translate(-165 -128)"><g clip-path="url(#clip2)" filter="url(#fx0)" transform="translate(164 127)"><g><path d="M122.75-87.875C122.75-86.722 120.824-85.2546 116.971-83.4727 113.504-81.9271 109.748-80.6025 105.703-79.499 98.7656-73.7314 92.8579-67.3693 87.98-60.4126 83.1021-53.4559 77.7129-44.1309 71.8125-32.4375L72.0645-32.4375C78.7415-32.4375 84.3532-34.9049 88.8994-39.8398 91.1312-42.265 92.7188-45.5661 93.6621-49.7432 93.9551-50.9144 94.599-51.5 95.5938-51.5 96.8438-51.5 97.4688-50.875 97.4688-49.625 97.4688-44.5736 94.7757-39.8628 89.3896-35.4927 84.0036-31.1226 78.2705-28.9375 72.1904-28.9375 71.1839-28.9375 70.7174-28.9792 70.791-29.0625 70.8255-29.043 69.7015-26.7083 67.4189-22.0586 62.1839-11.3789 57.7463-3.69727 54.106 0.986328 50.4657 5.66992 45.7461 9.84505 39.9473 13.5117 30.7201 19.3372 21.2376 22.25 11.5 22.25 5.76367 22.25 1.00667 20.9233-2.771 18.27-6.54867 15.6167-8.4375 12.1725-8.4375 7.9375-8.4375 5.55729-7.73454 3.50391-6.32861 1.77734-4.92269 0.0507813-3.16732-0.8125-1.0625-0.8125 2.5625-0.8125 4.375 1 4.375 4.625 4.375 8.79167 2.4375 10.875-1.4375 10.875-4.40104 10.875-5.96354 9.11393-6.125 5.5918-6.125 5.67904-5.98014 5.9401-5.69043 6.375-5.06348 6.375-4.75 6.95833-4.75 8.125-4.75 10.9935-3.24593 13.4398-0.237793 15.4639 2.77034 17.488 6.64128 18.5 11.375 18.5 21.6719 18.5 30.5677 14.2891 38.0625 5.86719 41.0221 2.54232 44.0107-1.70508 47.0283-6.875 51.3219-14.487 55.7604-22.3346 60.3438-30.418L61.1875-30.8115C57.3203-31.8714 54.0514-34.1483 51.3809-37.6421 48.7103-41.1359 47.375-45.1302 47.375-49.625 47.375-57.5195 50.6289-64.1094 57.1367-69.3945 60.9466-72.4681 64.7575-74.6012 68.5693-75.7939 72.3812-76.9866 79.2018-78.1947 89.0312-79.418 93.1823-79.9062 98.1611-80.8659 103.968-82.2969 111.799-87.3073 117.331-89.8125 120.562-89.8125 122.021-89.8125 122.75-89.1667 122.75-87.875ZM102-78.875C100.454-78.2415 97.1266-77.3522 92.0166-76.207 84.307-74.485 78.4486-72.7856 74.4414-71.1089 70.4342-69.4321 66.7965-67.2018 63.5283-64.418 56.6761-58.5618 53.25-52.4434 53.25-46.0625 53.25-40.0586 56.2783-35.9544 62.335-33.75 74.6051-56.1335 87.8268-71.1751 102-78.875ZM106.854-46.6875C106.854-44.8978 106.118-43.242 104.646-41.7202 103.174-40.1984 101.514-39.4375 99.6667-39.4375 96.9583-39.4375 95.6042-40.7917 95.6042-43.5 95.6042-45.2174 96.3748-46.8343 97.9162-48.3506 99.4575-49.8669 101.104-50.625 102.854-50.625 105.521-50.625 106.854-49.3125 106.854-46.6875ZM107.76-20.6797C107.632-20.2936 107.378-19.8268 107-19.2793L104.178-15.4072C96.0925-4.17741 89.7578 1.4375 85.1745 1.4375 82.8477 1.4375 80.9105 0.61556 79.363-1.02832 77.8154-2.6722 77.0417-4.70443 77.0417-7.125 77.0417-9.77995 78.5312-13.6549 81.5104-18.75L91.7272-35.9375C93.5117-35.6458 94.7415-35.5 95.4167-35.5 96.5026-35.5 98.5234-35.6458 101.479-35.9375L87.0866-10.7109C85.1816-7.5625 84.2292-5.17969 84.2292-3.5625 84.2292-2.52083 84.7721-2 85.8581-2 89.1393-2 95.3018-8.40104 104.345-21.2031 104.769-22.0469 105.344-22.4688 106.073-22.4688 107.198-22.4688 107.76-21.8724 107.76-20.6797ZM147.948-20.8438C147.948-19.5951 144.814-15.2741 138.548-7.88086 133.299-1.66862 129.008 1.4375 125.674 1.4375 123.447 1.4375 121.586 0.569499 120.093-1.1665 118.601-2.90251 117.854-4.972 117.854-7.375 117.854-9.2168 118.667-11.071 120.292-12.9375L121.434-11.8691C117.517-6.84505 114.761-3.6862 113.167-2.39258 110.704 0.160807 108.412 1.4375 106.292 1.4375 104.07 1.4375 102.222 0.59082 100.75-1.10254 99.2778-2.7959 98.5417-4.84505 98.5417-7.25 98.5417-9.88802 99.4792-12.2422 101.354-14.3125L113.342-35.9375C115.221-35.6458 116.538-35.5 117.292-35.5 118.044-35.5 119.898-35.6458 122.854-35.9375L106.774-8.9375C106.077-7.06901 105.729-5.27734 105.729-3.5625 105.729-2.52083 106.083-2 106.792-2 110.518-2 116.903-9.64583 125.948-24.9375L132.54-35.9375C134.324-35.6458 135.617-35.5 136.417-35.5 137.413-35.5 139.33-35.6458 142.167-35.9375L131.962-17.7109C127.348-10.1836 125.042-5.42578 125.042-3.4375 125.042-2.47917 125.46-2 126.296-2 129.195-2 134.202-6.4248 141.318-15.2744L143.556-20.0273 144.557-21.252C144.964-22.0632 145.532-22.4688 146.26-22.4688 147.385-22.4688 147.948-21.9271 147.948-20.8438ZM169.146-45.0938C169.146-43.0801 166.503-39.5654 161.218-34.5498 161.045-33.6566 160.958-32.7441 160.958-31.8125 160.958-29.513 161.881-26.0964 163.726-21.5625 165.214-18.2376 165.958-15.6126 165.958-13.6875 165.958-9.52865 163.995-5.9681 160.068-3.00586 156.141-0.0436199 151.521 1.4375 146.208 1.4375 143.022 1.4375 140.465 0.521322 138.537-1.31104 136.61-3.14339 135.646-5.60221 135.646-8.6875 135.646-12.0996 136.863-15.4214 139.298-18.6528 141.733-21.8843 144.349-23.5 147.146-23.5 147.763-23.5 148.026-23.4167 147.936-23.25L152.926-29.375C154.132-31.0189 155.857-33.2617 158.101-36.1035 158.801-38.9889 159.969-41.5993 161.604-43.9346 163.239-46.2699 164.982-47.4375 166.833-47.4375 168.375-47.4375 169.146-46.6562 169.146-45.0938ZM157.896-20.4375C157.896-21.6224 157.854-22.8289 157.771-24.0571 157.688-25.2853 157.646-27.0788 157.646-29.4375 157.646-31.4167 157.729-32.5625 157.896-32.875 157.147-30.3151 154.626-26.6133 150.333-21.7695 151.125-21.3665 151.521-20.5059 151.521-19.1875 151.521-16.0599 149.271-14.0091 144.772-13.0352 143.21-12.6751 141.934-11.9131 140.944-10.749 139.953-9.58496 139.458-8.37695 139.458-7.125 139.458-5.78971 139.928-4.68506 140.867-3.81104 141.806-2.93701 143.003-2.5 144.458-2.5 147.546-2.5 150.558-4.39518 153.493-8.18555 156.428-11.9759 157.896-16.0599 157.896-20.4375ZM193.521-46.6875C193.521-44.8978 192.785-43.242 191.313-41.7202 189.841-40.1984 188.181-39.4375 186.333-39.4375 183.625-39.4375 182.271-40.7917 182.271-43.5 182.271-45.2174 183.042-46.8343 184.583-48.3506 186.124-49.8669 187.77-50.625 189.521-50.625 192.188-50.625 193.521-49.3125 193.521-46.6875ZM194.427-20.6797C194.298-20.2936 194.045-19.8268 193.666-19.2793L190.845-15.4072C182.759-4.17741 176.424 1.4375 171.841 1.4375 169.514 1.4375 167.577 0.61556 166.03-1.02832 164.482-2.6722 163.708-4.70443 163.708-7.125 163.708-9.77995 165.198-13.6549 168.177-18.75L178.394-35.9375C180.178-35.6458 181.408-35.5 182.083-35.5 183.169-35.5 185.19-35.6458 188.146-35.9375L173.753-10.7109C171.848-7.5625 170.896-5.17969 170.896-3.5625 170.896-2.52083 171.439-2 172.525-2 175.806-2 181.968-8.40104 191.012-21.2031 191.435-22.0469 192.011-22.4688 192.74-22.4688 193.865-22.4688 194.427-21.8724 194.427-20.6797Z" transform="translate(10 91)"/></g></g></g></svg>